<svg xmlns="http://www.w3.org/2000/svg" viewBox="0 0 512 512">
  <rect width="512" height="512" rx="64" fill="#1a1a2e"/>
  <rect x="24" y="24" width="464" height="464" rx="48" fill="#16213e" stroke="#53a8b6" stroke-width="3"/>
  <!-- Dagger blade -->
  <path d="M256 72 L288 280 L256 320 L224 280 Z" fill="#e8e8f0" opacity="0.95"/>
  <!-- Dagger edge highlight -->
  <path d="M256 72 L272 260 L256 300 Z" fill="#53a8b6" opacity="0.3"/>
  <!-- Crossguard -->
  <path d="M200 270 L312 270 L300 290 L212 290 Z" fill="#e0a526"/>
  <!-- Handle -->
  <rect x="244" y="290" width="24" height="80" rx="4" fill="#a0a0b8"/>
  <!-- Handle wrap -->
  <path d="M244 300 L268 310 M244 320 L268 330 M244 340 L268 350" stroke="#53a8b6" stroke-width="2" fill="none"/>
  <!-- Pommel -->
  <circle cx="256" cy="386" r="16" fill="#e0a526"/>
  <circle cx="256" cy="386" r="8" fill="#c84b31"/>
  <!-- Heart -->
  <path d="M256 430 C256 430 220 410 220 395 C220 385 230 378 240 382 C248 385 256 395 256 395 C256 395 264 385 272 382 C282 378 292 385 292 395 C292 410 256 430 256 430 Z" fill="#c84b31"/>
</svg>
